<svg xmlns="http://www.w3.org/2000/svg" width="770" height="768" viewBox="0 0 770 768">
<g>
<path d="M 0.00 0.00 L 770.00 0.00 L 770.00 768.00 L 0.00 768.00 ZM 258.50 576.51 C259.05,576.69 260.72,576.88 262.22,576.92 C264.52,576.99 265.70,575.87 269.79,569.75 C278.45,556.83 291.17,535.08 290.61,534.18 C290.31,533.69 287.31,532.29 283.94,531.06 C275.98,528.16 249.72,514.80 249.43,513.50 C249.30,512.95 251.20,510.74 253.64,508.58 L 258.08 504.66 L 267.29 509.26 C290.82,520.99 313.97,527.12 351.50,531.56 C365.85,533.26 407.78,533.48 421.81,531.93 C457.85,527.95 485.85,520.69 508.77,509.37 L 518.03 504.80 L 522.27 508.59 C524.59,510.67 526.64,512.71 526.81,513.11 C527.26,514.19 511.45,522.56 498.17,528.26 C491.75,531.02 486.10,533.63 485.61,534.08 C484.73,534.87 500.72,562.43 507.66,572.09 C510.49,576.03 511.76,577.00 514.09,577.00 C517.08,577.00 539.39,569.68 553.50,564.06 C574.13,555.85 603.71,539.86 628.09,523.74 C636.08,518.46 640.08,516.20 642.20,512.77 C644.67,508.79 644.60,503.24 645.30,489.54 C646.97,456.54 644.55,421.74 638.40,390.50 C630.79,351.83 618.86,316.85 601.23,281.50 C588.48,255.93 568.63,222.87 565.21,221.50 C533.84,208.95 465.85,189.31 460.67,191.29 C459.88,191.60 456.20,197.79 452.51,205.05 L 445.80 218.25 L 440.65 217.62 C437.82,217.28 431.23,216.45 426.00,215.79 C413.57,214.21 362.43,214.21 350.00,215.79 C344.77,216.45 338.19,217.28 335.37,217.62 L 330.24 218.25 L 323.37 204.88 C318.02,194.46 316.01,191.43 314.29,191.19 C307.16,190.17 240.63,209.66 210.84,221.48 C205.46,223.62 175.36,277.40 162.98,307.00 C151.67,334.05 142.42,364.08 137.48,389.74 C131.88,418.83 128.99,463.71 130.82,493.24 L 131.95 511.50 L 136.43 515.50 C143.48,521.80 175.82,541.57 194.67,551.11 C212.41,560.08 230.96,567.76 247.81,573.11 C253.14,574.80 257.95,576.33 258.50,576.51 ZM 89.44 491.62 C94.97,493.41 100.24,494.90 101.15,494.94 C102.22,494.98 105.53,490.65 110.43,482.79 L 118.04 470.58 L 106.34 464.54 C99.91,461.22 94.68,458.05 94.72,457.50 C94.76,456.95 95.86,455.70 97.18,454.72 C99.52,452.97 99.74,453.01 108.30,456.97 C113.11,459.18 117.41,461.00 117.86,461.00 C118.32,461.00 118.98,453.86 119.34,445.14 C119.70,436.41 120.28,427.86 120.62,426.14 C121.12,423.63 120.92,423.00 119.59,423.00 C114.11,423.00 104.49,414.55 100.81,406.50 C97.40,399.03 97.57,387.33 101.19,380.50 C106.83,369.84 116.42,363.63 126.45,364.15 L 131.40 364.40 L 134.12 354.10 C138.85,336.15 151.56,301.69 158.50,288.00 L 161.18 282.71 L 153.44 283.41 C149.18,283.80 144.48,284.35 142.99,284.65 C140.44,285.16 140.06,284.72 136.48,277.10 C134.39,272.64 132.07,269.00 131.32,269.00 C127.85,269.00 103.37,275.80 88.24,280.97 L 71.50 286.69 L 67.19 293.10 C49.85,318.85 35.05,355.46 29.63,386.00 C26.35,404.41 24.59,427.50 25.43,441.00 C26.44,457.13 26.59,457.61 31.84,461.28 C50.99,474.65 73.30,486.40 89.44,491.62 ZM 671.19 492.25 C673.63,495.70 674.73,495.68 686.04,491.99 C703.27,486.36 733.67,470.09 746.50,459.64 L 749.50 457.19 L 749.84 436.85 C750.31,407.91 747.61,386.14 740.48,361.50 C734.89,342.19 723.64,317.55 711.17,297.33 L 704.90 287.15 L 696.26 284.03 C678.15,277.47 648.94,269.00 644.46,269.00 C643.68,269.00 641.39,272.57 639.29,277.07 C635.63,284.90 635.43,285.12 632.51,284.59 C625.58,283.35 616.00,282.78 616.00,283.61 C616.00,284.10 618.88,290.96 622.40,298.86 C627.87,311.13 637.96,339.89 643.52,359.00 L 645.12 364.51 L 649.51 364.16 C655.07,363.71 662.53,366.17 667.10,369.93 C669.05,371.54 672.17,375.70 674.04,379.18 C677.14,384.94 677.45,386.26 677.47,394.00 C677.48,401.32 677.11,403.21 674.79,407.63 C671.23,414.39 666.69,418.79 660.22,421.76 C656.31,423.55 655.05,424.62 655.41,425.84 C655.67,426.75 656.15,431.77 656.47,437.00 C656.79,442.23 657.31,449.78 657.62,453.79 C657.90,457.50 657.95,459.57 658.94,460.22 C660.10,460.99 662.58,459.78 668.31,456.99 C668.79,456.75 669.29,456.51 669.82,456.25 L 677.14 452.69 L 679.77 455.31 C681.21,456.76 682.19,458.13 681.95,458.36 C681.70,458.58 676.44,461.30 670.25,464.39 C664.06,467.49 659.00,470.49 659.00,471.07 C659.00,472.18 667.80,487.47 671.19,492.25 ZM 317.10 451.65 C312.60,453.50 309.73,453.94 302.50,453.88 C288.53,453.76 282.14,451.17 272.15,441.60 C255.95,426.06 251.73,401.91 261.58,381.04 C266.08,371.51 270.48,366.18 278.01,361.15 C286.37,355.57 293.29,353.74 304.49,354.16 C312.38,354.46 314.44,354.94 320.40,357.87 C342.91,368.96 353.37,396.88 344.54,422.28 C339.88,435.66 329.85,446.40 317.10,451.65 ZM 492.20 450.22 C486.19,453.18 484.60,453.51 475.04,453.77 C465.69,454.03 463.83,453.78 458.62,451.59 C419.80,435.27 417.91,376.42 455.61,357.87 C462.20,354.63 462.92,354.50 474.04,354.50 C485.21,354.50 485.84,354.62 492.28,357.88 C503.65,363.66 512.43,374.23 517.08,387.72 C525.19,411.29 513.95,439.51 492.20,450.22 Z" fill="rgb(87,99,239)"/>
<path d="M 258.50 576.51 C257.95,576.33 253.14,574.80 247.81,573.11 C230.96,567.76 212.41,560.08 194.67,551.11 C175.82,541.57 143.48,521.80 136.43,515.50 L 131.95 511.50 L 130.82 493.24 C128.99,463.71 131.88,418.83 137.48,389.74 C142.42,364.08 151.67,334.05 162.98,307.00 C175.36,277.40 205.46,223.62 210.84,221.48 C240.63,209.66 307.16,190.17 314.29,191.19 C316.01,191.43 318.02,194.46 323.37,204.88 L 330.24 218.25 L 335.37 217.62 C338.19,217.28 344.77,216.45 350.00,215.79 C362.43,214.21 413.57,214.21 426.00,215.79 C431.23,216.45 437.82,217.28 440.65,217.62 L 445.80 218.25 L 452.51 205.05 C456.20,197.79 459.88,191.60 460.67,191.29 C465.85,189.31 533.84,208.95 565.21,221.50 C568.63,222.87 588.48,255.93 601.23,281.50 C618.86,316.85 630.79,351.83 638.40,390.50 C644.55,421.74 646.97,456.54 645.30,489.54 C644.00,515.03 645.36,512.32 628.09,523.74 C603.71,539.86 574.13,555.85 553.50,564.06 C539.39,569.68 517.08,577.00 514.09,577.00 C511.76,577.00 510.49,576.03 507.66,572.09 C500.72,562.43 484.73,534.87 485.61,534.08 C486.10,533.63 491.75,531.02 498.17,528.26 C511.45,522.56 527.26,514.19 526.81,513.11 C526.64,512.71 524.59,510.67 522.27,508.59 L 518.03 504.80 L 508.77 509.37 C485.85,520.69 457.85,527.95 421.81,531.93 C407.78,533.48 365.85,533.26 351.50,531.56 C313.97,527.12 290.82,520.99 267.29,509.26 L 258.08 504.66 L 253.64 508.58 C251.20,510.74 249.30,512.95 249.43,513.50 C249.72,514.80 275.98,528.16 283.94,531.06 C287.31,532.29 290.31,533.69 290.61,534.18 C291.17,535.08 278.45,556.83 269.79,569.75 C265.70,575.87 264.52,576.99 262.22,576.92 C260.72,576.88 259.05,576.69 258.50,576.51 ZM 317.10 451.65 C329.85,446.40 339.88,435.66 344.54,422.28 C353.37,396.88 342.91,368.96 320.40,357.87 C314.44,354.94 312.38,354.46 304.49,354.16 C293.29,353.74 286.37,355.57 278.01,361.15 C270.48,366.18 266.08,371.51 261.58,381.04 C251.73,401.91 255.95,426.06 272.15,441.60 C282.14,451.17 288.53,453.76 302.50,453.88 C309.73,453.94 312.60,453.50 317.10,451.65 ZM 492.20 450.22 C513.95,439.51 525.19,411.29 517.08,387.72 C512.43,374.23 503.65,363.66 492.28,357.88 C485.84,354.62 485.21,354.50 474.04,354.50 C462.92,354.50 462.20,354.63 455.61,357.87 C417.91,376.42 419.80,435.27 458.62,451.59 C463.83,453.78 465.69,454.03 475.04,453.77 C484.60,453.51 486.19,453.18 492.20,450.22 ZM 89.44 491.62 C73.30,486.40 50.99,474.65 31.84,461.28 C26.59,457.61 26.44,457.13 25.43,441.00 C24.59,427.50 26.35,404.41 29.63,386.00 C35.05,355.46 49.85,318.85 67.19,293.10 L 71.50 286.69 L 88.24 280.97 C103.37,275.80 127.85,269.00 131.32,269.00 C132.07,269.00 134.39,272.64 136.48,277.10 C140.06,284.72 140.44,285.16 142.99,284.65 C144.48,284.35 149.18,283.80 153.44,283.41 L 161.18 282.71 L 158.50 288.00 C151.56,301.69 138.85,336.15 134.12,354.10 L 131.40 364.40 L 126.45 364.15 C116.42,363.63 106.83,369.84 101.19,380.50 C97.57,387.33 97.40,399.03 100.81,406.50 C104.49,414.55 114.11,423.00 119.59,423.00 C120.92,423.00 121.12,423.63 120.62,426.14 C120.28,427.86 119.70,436.41 119.34,445.14 C118.98,453.86 118.32,461.00 117.86,461.00 C117.41,461.00 113.11,459.18 108.30,456.97 C99.74,453.01 99.52,452.97 97.18,454.72 C95.86,455.70 94.76,456.95 94.72,457.50 C94.68,458.05 99.91,461.22 106.34,464.54 L 118.04 470.58 L 110.43 482.79 C105.53,490.65 102.22,494.98 101.15,494.94 C100.24,494.90 94.97,493.41 89.44,491.62 ZM 671.19 492.25 C667.80,487.47 659.00,472.18 659.00,471.07 C659.00,470.49 664.06,467.49 670.25,464.39 C676.44,461.30 681.70,458.58 681.95,458.36 C682.19,458.13 681.21,456.76 679.77,455.31 L 677.14 452.69 L 669.82 456.25 C657.69,462.15 658.27,462.27 657.62,453.79 C657.31,449.78 656.79,442.23 656.47,437.00 C656.15,431.77 655.67,426.75 655.41,425.84 C655.05,424.62 656.31,423.55 660.22,421.76 C666.69,418.79 671.23,414.39 674.79,407.63 C677.11,403.21 677.48,401.32 677.47,394.00 C677.45,386.26 677.14,384.94 674.04,379.18 C672.17,375.70 669.05,371.54 667.10,369.93 C662.53,366.17 655.07,363.71 649.51,364.16 L 645.12 364.51 L 643.52 359.00 C637.96,339.89 627.87,311.13 622.40,298.86 C618.88,290.96 616.00,284.10 616.00,283.61 C616.00,282.78 625.58,283.35 632.51,284.59 C635.43,285.12 635.63,284.90 639.29,277.07 C641.39,272.57 643.68,269.00 644.46,269.00 C648.94,269.00 678.15,277.47 696.26,284.03 L 704.90 287.15 L 711.17 297.33 C723.64,317.55 734.89,342.19 740.48,361.50 C747.61,386.14 750.31,407.91 749.84,436.85 L 749.50 457.19 L 746.50 459.64 C733.67,470.09 703.27,486.36 686.04,491.99 C674.73,495.68 673.63,495.70 671.19,492.25 Z" fill="rgb(253,254,253)"/>
</g>
</svg>